<svg width="100" height="100" viewBox="0 0 100 100" fill="none" xmlns="http://www.w3.org/2000/svg">
<path fill-rule="evenodd" clip-rule="evenodd" d="M10 0C4.47715 0 0 4.47716 0 10V90C0 95.5229 4.47716 100 10 100H90C95.5229 100 100 95.5228 100 90V10C100 4.47715 95.5228 0 90 0H10ZM18.5455 46.4545V53.5227H32.9318V93H41.2955V53.5227H55.6818V46.4545H18.5455ZM85.4545 54.6136C87.0303 55.7197 87.9242 57.2652 88.1364 59.25H96.25C96.2045 56.6288 95.4697 54.3106 94.0455 52.2955C92.6212 50.2652 90.6591 48.6818 88.1591 47.5455C85.6742 46.3939 82.7803 45.8182 79.4773 45.8182C76.2197 45.8182 73.303 46.3939 70.7273 47.5455C68.1515 48.6818 66.1136 50.2803 64.6136 52.3409C63.1288 54.4015 62.3864 56.803 62.3864 59.5455C62.3864 62.8788 63.4924 65.553 65.7045 67.5682C67.9318 69.5682 70.9621 71.0606 74.7955 72.0455L80.0909 73.4091C81.7576 73.8333 83.2121 74.3182 84.4545 74.8636C85.7121 75.3939 86.6894 76.0606 87.3864 76.8636C88.0833 77.6515 88.4394 78.6515 88.4545 79.8636C88.4394 81.197 88.0379 82.3636 87.25 83.3636C86.4621 84.3485 85.3712 85.1212 83.9773 85.6818C82.5985 86.2273 80.9924 86.5 79.1591 86.5C77.4015 86.5 75.8106 86.2348 74.3864 85.7045C72.9773 85.1742 71.8333 84.3712 70.9545 83.2955C70.0758 82.2197 69.5758 80.8712 69.4545 79.25H61.1591C61.2803 82.3409 62.0833 84.9621 63.5682 87.1136C65.0682 89.2652 67.1439 90.9015 69.7955 92.0227C72.4621 93.1439 75.6061 93.7045 79.2273 93.7045C82.9545 93.7045 86.1288 93.1288 88.75 91.9773C91.3864 90.8106 93.4015 89.197 94.7955 87.1364C96.1894 85.0606 96.8864 82.6591 96.8864 79.9318C96.8864 77.9167 96.5076 76.1591 95.75 74.6591C94.9924 73.1591 93.9621 71.8788 92.6591 70.8182C91.3712 69.7576 89.9091 68.8788 88.2727 68.1818C86.6515 67.4848 84.9621 66.9318 83.2045 66.5227L78.8409 65.4318C77.8864 65.2045 76.9394 64.9242 76 64.5909C75.0606 64.2576 74.2045 63.8485 73.4318 63.3636C72.6591 62.8636 72.0455 62.2576 71.5909 61.5455C71.1515 60.8333 70.9318 59.9924 70.9318 59.0227C70.947 57.8561 71.2879 56.8182 71.9545 55.9091C72.6212 55 73.5833 54.2803 74.8409 53.75C76.0985 53.2197 77.6061 52.9545 79.3636 52.9545C81.8636 52.9545 83.8939 53.5076 85.4545 54.6136Z" fill="black"/>
</svg>
