<svg width="94" height="350" viewBox="0 0 94 350" fill="none" xmlns="http://www.w3.org/2000/svg">
<path d="M16.5264 130.462C20.7514 133.02 25.0965 134.452 28.6987 134.709C32.3158 134.967 35.1056 134.041 36.3486 131.988C37.5915 129.934 37.1185 127.033 35.212 123.948C33.3135 120.876 30.0297 117.69 25.8047 115.133C21.5797 112.576 17.2345 111.144 13.6324 110.886C10.0153 110.628 7.22544 111.554 5.9825 113.608C4.73956 115.662 5.21261 118.563 7.11903 121.648C9.01755 124.72 12.3013 127.905 16.5264 130.462Z" fill="#DB2777" stroke="black" stroke-width="0.5"/>
<path d="M77.1357 130.462C72.9107 133.02 68.5656 134.452 64.9634 134.709C61.3463 134.967 58.5565 134.041 57.3135 131.988C56.0706 129.934 56.5437 127.033 58.4501 123.948C60.3486 120.876 63.6324 117.69 67.8574 115.133C72.0825 112.576 76.4276 111.144 80.0297 110.886C83.6469 110.628 86.4367 111.554 87.6796 113.608C88.9225 115.662 88.4495 118.563 86.5431 121.648C84.6446 124.72 81.3608 127.905 77.1357 130.462Z" fill="#DB2777" stroke="black" stroke-width="0.5"/>
</svg>
