<svg width="1896" height="1896" viewBox="0 0 1896 1896" fill="none" xmlns="http://www.w3.org/2000/svg">
<g clip-path="url(#clip0_1_2)">
<path d="M1088 1722.23C1088 1730.88 1082.03 1738.38 1073.61 1740.33C991.923 1759.2 907.032 1759.4 825.26 1740.9L822.767 1740.34C814.132 1738.39 808 1730.71 808 1721.86V1657H1088V1722.23Z" fill="white"/>
<path d="M808 149.772C808 141.125 813.967 133.621 822.393 131.675C904.077 112.802 988.968 112.604 1070.74 131.097L1073.23 131.66C1081.87 133.613 1088 141.287 1088 150.14V215H808V149.772Z" fill="white"/>
<path d="M1734.23 796C1742.88 796 1750.38 801.967 1752.33 810.393C1771.2 892.077 1771.4 976.968 1752.9 1058.74L1752.34 1061.23C1750.39 1069.87 1742.71 1076 1733.86 1076H1669V796H1734.23Z" fill="white"/>
<path d="M161.772 1076C153.125 1076 145.621 1070.03 143.675 1061.61C124.802 979.923 124.604 895.032 143.097 813.26L143.66 810.767C145.613 802.132 153.287 796 162.14 796H227L227 1076H161.772Z" fill="white"/>
<path d="M1462.36 1546.89C1466.68 1554.38 1465.27 1563.86 1458.94 1569.76C1397.64 1626.95 1324.22 1669.57 1244.16 1694.44L1241.72 1695.19C1233.26 1697.82 1224.11 1694.24 1219.69 1686.57L1187.26 1630.4L1429.74 1490.4L1462.36 1546.89Z" fill="white"/>
<path d="M433.642 325.106C429.319 317.618 430.735 308.136 437.058 302.238C498.363 245.051 571.781 202.434 651.844 177.563L654.285 176.805C662.74 174.179 671.887 177.758 676.314 185.425L708.744 241.596L466.256 381.596L433.642 325.106Z" fill="white"/>
<path d="M1558.89 421.642C1566.38 417.319 1575.86 418.735 1581.76 425.058C1638.95 486.363 1681.57 559.781 1706.44 639.844L1707.19 642.285C1709.82 650.74 1706.24 659.887 1698.57 664.314L1642.4 696.744L1502.4 454.256L1558.89 421.642Z" fill="white"/>
<path d="M337.106 1450.36C329.618 1454.68 320.136 1453.27 314.238 1446.94C257.051 1385.64 214.434 1312.22 189.563 1232.16L188.805 1229.72C186.179 1221.26 189.758 1212.11 197.425 1207.69L253.596 1175.26L393.596 1417.74L337.106 1450.36Z" fill="white"/>
<path d="M1698.79 1219.97C1706.28 1224.3 1709.8 1233.21 1707.27 1241.48C1682.77 1321.66 1640.5 1395.28 1583.6 1456.85L1581.86 1458.73C1575.85 1465.23 1566.14 1466.7 1558.47 1462.27L1502.3 1429.84L1642.3 1187.36L1698.79 1219.97Z" fill="white"/>
<path d="M197.005 676.23C189.517 671.907 186.002 662.987 188.529 654.717C213.027 574.54 255.301 500.924 312.202 439.353L313.937 437.476C319.946 430.974 329.657 429.501 337.325 433.927L393.495 466.357L253.495 708.844L197.005 676.23Z" fill="white"/>
<path d="M1219.77 197.207C1224.09 189.718 1233.01 186.204 1241.28 188.731C1321.46 213.229 1395.08 255.503 1456.65 312.404L1458.52 314.139C1465.03 320.148 1466.5 329.859 1462.07 337.526L1429.64 393.697L1187.16 253.697L1219.77 197.207Z" fill="white"/>
<path d="M676.029 1698.99C671.705 1706.48 662.785 1710 654.516 1707.47C574.338 1682.97 500.722 1640.7 439.152 1583.8L437.275 1582.06C430.772 1576.05 429.299 1566.34 433.726 1558.68L466.156 1502.51L708.643 1642.51L676.029 1698.99Z" fill="white"/>
<path fill-rule="evenodd" clip-rule="evenodd" d="M187.661 937.661C187.661 517.924 527.924 177.661 947.661 177.661C1367.4 177.661 1707.66 517.924 1707.66 937.661C1707.66 1357.4 1367.4 1697.66 947.661 1697.66C527.924 1697.66 187.661 1357.4 187.661 937.661ZM947.661 1587.16C1306.37 1587.16 1597.16 1296.37 1597.16 937.661C1597.16 578.952 1306.37 288.161 947.661 288.161C588.952 288.161 298.161 578.952 298.161 937.661C298.161 1296.37 588.952 1587.16 947.661 1587.16Z" fill="white"/>
<path fill-rule="evenodd" clip-rule="evenodd" d="M947.83 335.181L948 335.161V335.201L1058.68 348.382C1079.7 350.885 1100.19 356.71 1119.38 365.639L1188.1 397.606C1198.39 402.392 1206.75 410.537 1211.8 420.702L1234.64 466.694C1238.52 474.512 1241.1 482.913 1242.27 491.563L1251.75 561.78C1252.54 567.622 1250.7 573.512 1246.71 577.856L1226.91 599.434C1207.54 620.547 1200.77 650.32 1209.09 677.736L1212.36 688.478C1215.5 698.824 1206.15 708.639 1195.66 706L1225.94 736.04C1232.95 742.993 1233.2 754.246 1226.5 761.5L1252.6 750.564C1259.61 747.631 1267.46 747.462 1274.58 750.09L1305.5 761.5L1370.25 796.099C1394.81 809.221 1416.36 827.329 1433.52 849.261L1463.09 887.06C1470.31 896.282 1475.85 906.699 1479.46 917.837L1510.63 1013.96C1513.85 1023.93 1515.5 1034.33 1515.5 1044.81V1089L1511.66 1112.8C1510.11 1122.38 1496.1 1121.69 1495.5 1112L1493.06 1075.24C1491.05 1044.82 1482.1 1015.26 1466.91 988.821L1457.97 973.249C1444.79 950.311 1427.19 930.216 1406.19 914.127L1396.55 906.744C1382.91 896.291 1367.97 887.641 1352.12 881.007L1342.54 877.001C1318.09 866.769 1291.75 861.5 1265.25 861.5C1243.29 861.5 1221.39 865.117 1200.61 872.206L1176.92 880.284C1156.12 887.379 1136.62 897.856 1119.23 911.293L1110.55 917.993C1092.97 931.57 1077.78 947.979 1065.59 966.547L1064.05 968.894L1063.23 968.858C1043.96 968.02 1026.65 956.797 1018.02 939.539C1016.86 937.21 1017.55 934.381 1019.66 932.856L1021.45 931.563C1023.66 929.968 1024.89 927.35 1024.71 924.632L1023.61 907.846C1023.27 902.588 1018.9 898.5 1013.63 898.5H1002.75H998.188L993.625 877.5L989.062 898.5H984.5H975.375L970.812 877.5L966.25 898.5H948H929.75L925.188 877.5L920.625 898.5H911.5H906.938L902.375 877.5L897.812 898.5H893.25H882.366C877.097 898.5 872.732 902.588 872.387 907.846L871.286 924.632C871.108 927.35 872.341 929.968 874.549 931.563L876.339 932.856C878.45 934.381 879.145 937.21 877.98 939.539C869.352 956.797 852.045 968.02 832.768 968.858L831.616 968.908L830.067 966.547C817.881 947.979 802.688 931.57 785.11 917.993L776.435 911.293C759.038 897.856 739.545 887.379 718.739 880.284L695.052 872.206C674.266 865.117 652.376 861.5 630.415 861.5C603.908 861.5 577.569 866.769 553.116 877.001L543.542 881.007C527.687 887.641 512.754 896.291 499.111 906.744L489.474 914.127C468.474 930.216 450.874 950.311 437.695 973.249L428.747 988.821C413.557 1015.26 404.613 1044.82 402.597 1075.24L400.161 1112C399.563 1121.69 385.551 1122.38 384.003 1112.8L380.161 1089V1044.81C380.161 1034.33 381.806 1023.93 385.036 1013.96L416.202 917.837C419.813 906.699 425.352 896.282 432.567 887.06L462.139 849.261C479.298 827.329 500.847 809.221 525.408 796.099L590.161 761.5L621.078 750.09C628.201 747.462 636.054 747.631 643.057 750.564L669.161 761.5C662.465 754.246 662.712 742.993 669.721 736.04L700 706C689.515 708.639 680.162 698.824 683.304 688.478L686.566 677.736C694.892 650.32 688.116 620.547 668.747 599.434L648.951 577.856C644.965 573.512 643.117 567.622 643.907 561.78L653.396 491.563C654.565 482.913 657.141 474.512 661.024 466.694L683.863 420.702C688.911 410.537 697.267 402.392 707.557 397.606L776.276 365.639C795.47 356.71 815.96 350.885 836.981 348.382L947.661 335.201V335.161L947.83 335.181ZM855.773 1017.18C859.018 1026.25 861.609 1035.56 863.518 1045.03L869.661 1075.5L871.432 1089.81C874.231 1112.44 873.141 1135.37 868.21 1157.63L861.18 1189.36C858.508 1201.42 854.568 1213.16 849.425 1224.39C838.393 1248.48 822.037 1269.76 801.591 1286.61L778.712 1305.47C759.838 1321.02 738.27 1332.99 715.08 1340.76L693.556 1347.98C673.757 1354.62 653.013 1358 632.13 1358H627.527C602.903 1358 578.566 1352.71 556.161 1342.5L546.045 1338.16C538.964 1335.13 532.019 1342.71 535.661 1349.5L570.301 1368.57C583.499 1375.83 597.475 1381.58 611.963 1385.71L642.303 1394.35C660.122 1399.43 678.559 1402 697.087 1402H723.377C741.154 1402 758.851 1399.63 776.001 1394.95L799.002 1388.68C821.273 1382.61 842.325 1372.72 861.224 1359.47L884.094 1343.43C897.752 1333.85 910.157 1322.6 921.021 1309.94L948 1278.5L974.458 1309.57C985.442 1322.47 998.019 1333.92 1011.89 1343.65L1034.44 1359.47C1053.34 1372.72 1074.39 1382.61 1096.66 1388.68L1119.66 1394.95C1136.81 1399.63 1154.51 1402 1172.28 1402H1198.57C1217.1 1402 1235.54 1399.43 1253.36 1394.35L1283.7 1385.71C1298.19 1381.58 1312.16 1375.83 1325.36 1368.57L1360 1349.5C1363.64 1342.71 1356.7 1335.13 1349.62 1338.16L1339.5 1342.5C1317.09 1352.71 1292.76 1358 1268.13 1358H1263.53C1242.65 1358 1221.9 1354.62 1202.1 1347.98L1180.58 1340.76C1157.39 1332.99 1135.82 1321.02 1116.95 1305.47L1094.07 1286.61C1073.62 1269.76 1057.27 1248.48 1046.24 1224.39C1041.09 1213.16 1037.15 1201.42 1034.48 1189.36L1027.45 1157.63C1022.52 1135.37 1021.43 1112.44 1024.23 1089.81L1026 1075.5L1032.14 1045.03C1034.11 1035.29 1036.79 1025.72 1040.17 1016.4L1039.58 1008.09C1038.89 998.39 1034.55 989.309 1027.45 982.665C1024.5 979.905 1021.14 977.626 1017.48 975.911L1011.53 973.119C1006.13 970.587 999.774 971.259 995.025 974.864L984.906 982.546C974.359 990.553 961.179 994.286 948 993C934.821 994.286 921.641 990.553 911.094 982.546L900.975 974.864C896.226 971.259 889.868 970.587 884.469 973.119L878.519 975.911C874.862 977.626 871.498 979.905 868.548 982.665C861.446 989.309 857.115 998.39 856.422 1008.09L855.773 1017.18ZM1177.5 914.146C1177.5 910.483 1179.86 907.238 1183.35 906.115L1244.06 886.559C1248.08 885.262 1252.25 888.107 1252.51 892.329L1253.64 910.605C1261.36 1035.95 1189.65 1152.68 1074.36 1202.47C1071.19 1203.84 1067.52 1202.24 1066.38 1198.98L1046.77 1143.42C1045.47 1139.74 1047.08 1135.67 1050.55 1133.88C1128.51 1093.73 1177.5 1013.39 1177.5 925.704V914.146ZM718.161 914.146C718.161 910.483 715.797 907.238 712.311 906.115L651.604 886.559C647.577 885.262 643.408 888.107 643.148 892.329L642.023 910.605C634.305 1035.95 706.008 1152.68 821.303 1202.47C824.471 1203.84 828.136 1202.24 829.285 1198.98L848.895 1143.42C850.193 1139.74 848.577 1135.67 845.108 1133.88C767.152 1093.73 718.161 1013.39 718.161 925.704V914.146ZM836.388 645.32C828.185 638.155 818.865 632.378 808.799 628.218L742.812 600.948C735.524 597.936 734.427 588.068 740.875 583.529L800.273 541.716C801.421 540.908 802.481 539.98 803.435 538.95L821.967 518.936C822.759 518.081 821.696 516.792 820.706 517.407L783.5 540.5L760.373 555.276C754.299 559.156 746.239 555.531 745.112 548.412L738.773 508.363C737.266 498.838 734.388 489.581 730.23 480.879L712.617 444.024C710.757 440.13 711.604 435.482 714.718 432.495L727.808 419.939C728.665 419.117 727.631 417.753 726.608 418.356L709.589 428.385C707.51 429.61 704.852 429.176 703.272 427.352L701.705 425.544C700.372 424.006 700.104 421.814 701.028 420L709.511 403.349C710.042 402.306 708.655 401.356 707.875 402.229L696.127 415.358C696.042 415.453 695.967 415.555 695.902 415.663L692.651 421.082C691.919 422.302 691.741 423.777 692.163 425.136L719.511 513.257C721.829 520.727 723.263 528.442 723.783 536.245L725.378 560.175C725.728 565.423 730.086 569.5 735.345 569.5C737.435 569.5 738.122 572.303 736.269 573.269L702.916 590.655C699.815 592.272 699.289 596.49 701.897 598.819L707.209 603.561C709.305 605.433 712.093 606.337 714.889 606.05L725.27 604.985C728.263 604.678 731.235 605.735 733.362 607.862L737.232 611.732C738.345 612.845 738.869 614.417 738.646 615.975L736 634.5L746.526 622.471C748.406 620.322 751.712 620.212 753.731 622.231L755.121 623.621C756.404 624.904 756.324 627.008 754.946 628.189C747.716 634.386 743.718 643.549 744.091 653.063L744.376 660.329C744.431 661.744 742.939 662.693 741.681 662.042L730 656L747.168 679.26C755.937 691.141 769.509 698.537 784.245 699.468L808.5 701L813.229 701.844C818.549 702.794 818.788 710.338 813.539 711.623L787.5 718L830.323 715.722C833.099 715.575 835.851 715.12 838.527 714.367L840.675 713.763C847.056 711.969 852.692 708.172 856.752 702.933L858.771 700.327C862.792 695.14 870.216 694.107 875.5 698L880.781 701.697C890.296 708.357 897.195 718.122 900.295 729.315L904.5 744.5L910.907 726.481C911.799 723.97 914.503 722.601 917.055 723.366L932.5 728L948 726.5L963.5 728L978.945 723.366C981.497 722.601 984.201 723.97 985.093 726.481L991.5 744.5L995.705 729.315C998.805 718.122 1005.7 708.357 1015.22 701.697L1020.5 698C1025.78 694.107 1033.21 695.14 1037.23 700.327L1039.25 702.933C1043.31 708.172 1048.94 711.969 1055.32 713.763L1057.47 714.367C1060.15 715.12 1062.9 715.575 1065.68 715.722L1108.5 718L1082.46 711.623C1077.21 710.338 1077.45 702.794 1082.77 701.844L1087.5 701L1111.75 699.468C1126.49 698.537 1140.06 691.141 1148.83 679.26L1166 656L1154.32 662.042C1153.06 662.693 1151.57 661.744 1151.62 660.329L1151.91 653.063C1152.28 643.549 1148.28 634.386 1141.05 628.189C1139.68 627.008 1139.6 624.904 1140.88 623.621L1142.27 622.231C1144.29 620.212 1147.59 620.322 1149.47 622.471L1160 634.5L1157.35 615.975C1157.13 614.417 1157.65 612.845 1158.77 611.732L1162.64 607.862C1164.77 605.735 1167.74 604.678 1170.73 604.985L1181.11 606.05C1183.91 606.337 1186.69 605.433 1188.79 603.561L1194.1 598.819C1196.71 596.49 1196.18 592.272 1193.08 590.655L1159.73 573.269C1157.88 572.303 1158.56 569.5 1160.65 569.5C1165.91 569.5 1170.27 565.423 1170.62 560.175L1172.22 536.245C1172.74 528.442 1174.17 520.727 1176.49 513.257L1203.84 425.136C1204.26 423.777 1204.08 422.302 1203.35 421.082L1200.1 415.663C1200.03 415.555 1199.96 415.453 1199.87 415.358L1188.13 402.229C1187.34 401.356 1185.96 402.306 1186.49 403.349L1194.97 420C1195.9 421.814 1195.63 424.006 1194.29 425.544L1192.73 427.352C1191.15 429.176 1188.49 429.61 1186.41 428.385L1169.39 418.356C1168.37 417.753 1167.34 419.117 1168.19 419.939L1181.28 432.495C1184.4 435.482 1185.24 440.13 1183.38 444.024L1165.77 480.879C1161.61 489.581 1158.73 498.838 1157.23 508.363L1150.89 548.412C1149.76 555.531 1141.7 559.156 1135.63 555.276L1112.5 540.5L1075.29 517.407C1074.3 516.792 1073.24 518.081 1074.03 518.936L1092.56 538.95C1093.52 539.98 1094.58 540.908 1095.73 541.716L1155.12 583.529C1161.57 588.068 1160.48 597.936 1153.19 600.948L1087.2 628.218C1077.13 632.378 1067.82 638.155 1059.61 645.32L1039.39 662.986C1034.8 666.987 1030.6 671.398 1026.82 676.163L1013.37 693.122C1011.29 695.745 1007.41 696.024 1004.97 693.725C1002.12 691.028 1000.5 687.274 1000.5 683.346V674.9C1000.5 665.406 1004.48 656.347 1011.48 649.932L1012.5 649L1045.5 621L1083.76 595.902C1089.14 592.375 1093.39 587.376 1096 581.5L1095.87 581.527C1089.68 582.831 1083.79 585.297 1078.52 588.796L1030 621C1024.92 626.081 1016.8 619.662 1020.5 613.5L1032.5 581.5L998.387 623.8C996.136 626.592 994.191 629.618 992.587 632.826L985.582 646.836C981.966 654.068 980.888 662.306 982.522 670.224C985.101 682.72 983.46 695.719 977.855 707.182L977.317 708.283C976.127 710.717 974.312 712.792 972.057 714.295L971.255 714.83C968.154 716.897 964.512 718 960.786 718H948H935.214C931.488 718 927.846 716.897 924.745 714.83L923.943 714.295C921.688 712.792 919.873 710.717 918.683 708.283L918.145 707.182C912.54 695.719 910.899 682.72 913.478 670.224C915.112 662.306 914.034 654.068 910.418 646.836L903.413 632.826C901.809 629.618 899.864 626.592 897.613 623.8L863.5 581.5L875.5 613.5C879.197 619.662 871.081 626.081 866 621L817.479 588.796C812.207 585.297 806.32 582.831 800.129 581.527L800 581.5C802.611 587.376 806.859 592.375 812.235 595.902L850.5 621L883.5 649L884.516 649.932C891.515 656.347 895.5 665.406 895.5 674.9V683.346C895.5 687.274 893.882 691.028 891.026 693.725C888.592 696.024 884.712 695.745 882.631 693.122L869.181 676.163C865.402 671.398 861.195 666.987 856.614 662.986L836.388 645.32ZM873 845L868.5 851V867.5C868.5 868.605 867.605 869.5 866.5 869.5H862.5C861.395 869.5 860.5 868.605 860.5 867.5V856.106C860.5 855.711 860.383 855.325 860.164 854.996L860.094 854.891C859.723 854.334 859.098 854 858.43 854H851.571C850.245 854 848.973 854.527 848.036 855.464L847.964 855.535C847.027 856.473 845.755 857 844.429 857H843.071C841.745 857 840.473 856.473 839.536 855.535L831.464 847.464C830.527 846.527 829.255 846 827.929 846H819.576C818.55 846 817.549 845.684 816.709 845.096L780.582 819.808C778.902 818.631 776.899 818 774.848 818H768.455C767.198 818 765.987 817.527 765.064 816.674L760.874 812.807C760.299 812.276 759.608 811.888 758.856 811.673L750.812 809.375C749.953 809.129 749.176 808.658 748.56 808.011L740 799L747.44 803.307C748.743 804.062 750.317 804.189 751.725 803.652L757.355 801.508C758.996 800.882 760.189 799.443 760.497 797.714L762.5 786.5L764.632 792.363C765.636 795.123 768.791 796.428 771.451 795.183L788.993 786.972C789.656 786.661 790.38 786.5 791.112 786.5H810.278C811.081 786.5 811.872 786.693 812.584 787.064L820.809 791.341C822.716 792.332 825.042 791.995 826.588 790.503L852.5 765.5L840 788.5L830.329 802.039C830.11 802.345 829.927 802.675 829.782 803.023L825 814.5L820.69 821.826C820.238 822.595 820 823.47 820 824.362V830.044C820 831.867 820.993 833.546 822.59 834.425L829.598 838.279C829.866 838.426 830.119 838.597 830.355 838.79L839.619 846.37C840.512 847.101 841.631 847.5 842.785 847.5H848.43C849.098 847.5 849.723 847.166 850.094 846.609L851.016 845.227C851.943 843.836 853.504 843 855.176 843H858.929C860.255 843 861.527 843.527 862.464 844.464L865 847L873 845ZM899.5 848.5C899.5 847.395 898.605 846.5 897.5 846.5H890.828C890.298 846.5 889.789 846.289 889.414 845.914L882.586 839.086C882.211 838.711 881.702 838.5 881.172 838.5H877V844.172C877 844.702 877.211 845.211 877.586 845.586L885.414 853.414C885.789 853.789 886.298 854 886.828 854H897.5C898.605 854 899.5 853.105 899.5 852V848.5ZM924 845.5H948H972H973.576C974.162 845.5 974.719 845.757 975.099 846.203L985.522 858.439C985.831 858.801 986 859.261 986 859.736V861.5V870.5C986 871.605 985.105 872.5 984 872.5H980C978.895 872.5 978 871.605 978 870.5V862.167C978 861.734 977.86 861.313 977.6 860.967L972.6 854.3C972.222 853.796 971.63 853.5 971 853.5H948H925C924.37 853.5 923.778 853.796 923.4 854.3L918.4 860.967C918.14 861.313 918 861.734 918 862.167V870.5C918 871.605 917.105 872.5 916 872.5H912C910.895 872.5 910 871.605 910 870.5V861.5V859.736C910 859.261 910.169 858.801 910.478 858.439L920.901 846.203C921.281 845.757 921.838 845.5 922.424 845.5H924ZM1027.5 851L1023 845L1031 847L1033.54 844.464C1034.47 843.527 1035.74 843 1037.07 843H1040.82C1042.5 843 1044.06 843.836 1044.98 845.227L1045.91 846.609C1046.28 847.166 1046.9 847.5 1047.57 847.5H1053.22C1054.37 847.5 1055.49 847.101 1056.38 846.37L1065.65 838.79C1065.88 838.597 1066.13 838.426 1066.4 838.279L1073.41 834.425C1075.01 833.546 1076 831.867 1076 830.044V824.362C1076 823.47 1075.76 822.595 1075.31 821.826L1071 814.5L1066.22 803.023C1066.07 802.675 1065.89 802.345 1065.67 802.039L1056 788.5L1043.5 765.5L1069.41 790.503C1070.96 791.995 1073.28 792.332 1075.19 791.341L1083.42 787.064C1084.13 786.693 1084.92 786.5 1085.72 786.5H1104.89C1105.62 786.5 1106.34 786.661 1107.01 786.972L1124.55 795.183C1127.21 796.428 1130.36 795.123 1131.37 792.363L1133.5 786.5L1135.5 797.714C1135.81 799.443 1137 800.882 1138.64 801.508L1144.28 803.652C1145.68 804.189 1147.26 804.062 1148.56 803.307L1156 799L1147.44 808.011C1146.82 808.658 1146.05 809.129 1145.19 809.375L1137.14 811.673C1136.39 811.888 1135.7 812.276 1135.13 812.807L1130.94 816.674C1130.01 817.527 1128.8 818 1127.55 818H1121.15C1119.1 818 1117.1 818.631 1115.42 819.808L1079.29 845.096C1078.45 845.684 1077.45 846 1076.42 846H1068.07C1066.74 846 1065.47 846.527 1064.54 847.464L1056.46 855.535C1055.53 856.473 1054.26 857 1052.93 857H1051.57C1050.24 857 1048.97 856.473 1048.04 855.535L1047.96 855.464C1047.03 854.527 1045.76 854 1044.43 854H1037.57C1036.9 854 1036.28 854.334 1035.91 854.891L1035.84 854.996C1035.62 855.325 1035.5 855.711 1035.5 856.106V867.5C1035.5 868.605 1034.6 869.5 1033.5 869.5H1029.5C1028.4 869.5 1027.5 868.605 1027.5 867.5V851ZM998.5 846.5C997.395 846.5 996.5 847.395 996.5 848.5V852C996.5 853.105 997.395 854 998.5 854H1009.17C1009.7 854 1010.21 853.789 1010.59 853.414L1018.41 845.586C1018.79 845.211 1019 844.702 1019 844.172V838.5H1014.83C1014.3 838.5 1013.79 838.711 1013.41 839.086L1006.59 845.914C1006.21 846.289 1005.7 846.5 1005.17 846.5H998.5Z" fill="white"/>
</g>
<defs>
<clipPath id="clip0_1_2">
<rect width="1896" height="1896" fill="white"/>
</clipPath>
</defs>
</svg>
